<?xml version="1.0" standalone="no"?><!DOCTYPE svg PUBLIC "-//W3C//DTD SVG 1.1//EN" "http://www.w3.org/Graphics/SVG/1.1/DTD/svg11.dtd"><svg t="1582284869652" class="icon" viewBox="0 0 1024 1024" version="1.1" xmlns="http://www.w3.org/2000/svg" p-id="2033" xmlns:xlink="http://www.w3.org/1999/xlink" width="200" height="200"><defs><style type="text/css"></style></defs><path d="M512 1000.369231c-23.630769 0-55.138462-15.753846-78.769231-47.261539l-212.676923-212.676923h-94.523077c-63.015385 0-110.276923-47.261538-110.276923-110.276923v-228.430769c0-63.015385 47.261538-110.276923 110.276923-110.276923h94.523077l212.676923-212.676923c31.507692-31.507692 55.138462-47.261538 78.769231-47.261539 23.630769 0 55.138462 15.753846 55.138462 70.892308v827.076923c0 47.261538-31.507692 70.892308-55.138462 70.892308z m-393.846154-638.030769c-23.630769 0-39.384615 15.753846-39.384615 39.384615v228.430769c0 23.630769 15.753846 39.384615 39.384615 39.384616h110.276923c7.876923 0 15.753846 7.876923 23.630769 7.876923l228.43077 228.430769 7.876923 7.876923v-795.569231l-7.876923 7.876923-228.43077 228.430769c-7.876923 7.876923-15.753846 7.876923-23.630769 7.876924h-110.276923z m582.892308 409.6c-7.876923 0-15.753846 0-23.630769-7.876924-15.753846-15.753846-23.630769-39.384615-7.876923-55.138461l15.753846-23.630769c39.384615-55.138462 70.892308-94.523077 70.892307-173.292308 0-78.769231-31.507692-118.153846-70.892307-173.292308l-23.63077-23.630769c-15.753846-15.753846-7.876923-39.384615 7.876924-55.138461 15.753846-15.753846 39.384615-7.876923 55.138461 7.876923 7.876923 7.876923 15.753846 15.753846 15.753846 23.630769 39.384615 55.138462 86.646154 110.276923 86.646154 212.676923 0 102.4-47.261538 165.415385-86.646154 220.553846l-15.753846 15.753846c0 23.630769-15.753846 31.507692-23.630769 31.507693z" p-id="2034" data-spm-anchor-id="a313x.7781069.0.i0" class="" fill="#374C69"></path><path d="M827.076923 897.969231c-7.876923 0-15.753846 0-23.630769-7.876923-15.753846-15.753846-15.753846-39.384615 0-55.138462 78.769231-86.646154 141.784615-181.169231 141.784615-322.953846 0-133.907692-70.892308-236.307692-141.784615-322.953846-15.753846-15.753846-15.753846-39.384615 0-55.138462 15.753846-15.753846 39.384615-15.753846 55.138461 0 78.769231 94.523077 165.415385 212.676923 165.415385 370.215385 0 165.415385-86.646154 275.692308-165.415385 370.215385-7.876923 15.753846-23.630769 23.630769-31.507692 23.630769z" p-id="2035" data-spm-anchor-id="a313x.7781069.0.i1" class="selected" fill="#00A4FF"></path></svg>